<?xml version="1.0" encoding="utf-8"?>
<!-- Generator: Adobe Illustrator 27.5.0, SVG Export Plug-In . SVG Version: 6.00 Build 0)  -->
<svg version="1.1" id="Layer_1" xmlns="http://www.w3.org/2000/svg" xmlns:xlink="http://www.w3.org/1999/xlink" x="0px" y="0px"
	 viewBox="0 0 147 36" style="enable-background:new 0 0 147 36;" xml:space="preserve">
<style type="text/css">
	.st0{fill:url(#XMLID_00000131335031435174494020000000358821425729268882_);}
	.st1{fill:url(#XMLID_00000096766094092775372360000004747259219961298848_);}
	.st2{fill:url(#XMLID_00000053526474040993597000000001051994996201303957_);}
	.st3{fill:#404041;}
	.st4{font-family:'Montserrat-Bold';}
	.st5{font-size:27.8289px;}
	.st6{font-size:20.8717px;}
	.st7{font-family:'Montserrat-Light';}
	.st8{font-size:10.4359px;}
</style>
<g id="XMLID_00000137839674287109906480000001454502194938847883_">
	
		<linearGradient id="XMLID_00000167394242713882550710000017684173036714006932_" gradientUnits="userSpaceOnUse" x1="20.2321" y1="8.0088" x2="37.099" y2="8.0088">
		<stop  offset="0" style="stop-color:#392C70"/>
		<stop  offset="1" style="stop-color:#681D5C"/>
	</linearGradient>
	
		<path id="XMLID_00000077286911125881272010000002562438825414863765_" style="fill:url(#XMLID_00000167394242713882550710000017684173036714006932_);" d="
		M23.2,3l12.1,12.1c0.1-0.2,0.3-0.3,0.4-0.5c0.4-0.6,0.8-1.3,1-2.1c0.2-0.8,0.4-1.8,0.4-2.9c0-1.4-0.3-2.7-0.8-3.8
		c-0.5-1.1-1.3-2-2.2-2.8c-1-0.7-2.1-1.3-3.5-1.7c-1.4-0.4-2.9-0.6-4.5-0.6h-5.8c0,0,0.1,0,0.1,0C21.3,1.4,22.3,2.1,23.2,3z"/>
	
		<linearGradient id="XMLID_00000078763473519308548920000004324877547332228486_" gradientUnits="userSpaceOnUse" x1="1.1326" y1="20.0449" x2="37.7079" y2="20.0449">
		<stop  offset="0" style="stop-color:#392C70"/>
		<stop  offset="1" style="stop-color:#681D5C"/>
	</linearGradient>
	
		<path id="XMLID_00000157281038791802308330000006638850718068026280_" style="fill:url(#XMLID_00000078763473519308548920000004324877547332228486_);" d="
		M37.7,24.1L19.9,6.3c-0.8-0.8-1.5-1.1-2.4-1.1c-0.8,0-1.6,0.3-2.3,1.1c-0.7,0.7-1.1,1.5-1,2.3c0,0.8,0.4,1.6,1.1,2.3l8.6,8.6
		c1.9,1.9,2.9,3.8,3,5.7c0.1,1.9-0.8,3.7-2.6,5.6c-0.8,0.8-1.6,1.4-2.6,1.8c-0.9,0.4-1.9,0.6-2.8,0.7c-1,0-2-0.2-3-0.7
		c-1-0.5-2-1.2-3-2.2L1.1,18.5v16.4h25.6c1.7,0,3.2-0.2,4.5-0.7c1.4-0.5,2.5-1.2,3.5-2.1c1-0.9,1.7-2,2.2-3.3
		c0.5-1.3,0.8-2.7,0.8-4.2C37.7,24.4,37.7,24.3,37.7,24.1z"/>
	
		<linearGradient id="XMLID_00000128465372224931135320000014009594566545537466_" gradientUnits="userSpaceOnUse" x1="1.1326" y1="14.6682" x2="22.5828" y2="14.6682">
		<stop  offset="0" style="stop-color:#392C70"/>
		<stop  offset="1" style="stop-color:#681D5C"/>
	</linearGradient>
	
		<path id="XMLID_00000075162789122616609960000011276797871104773556_" style="fill:url(#XMLID_00000128465372224931135320000014009594566545537466_);" d="
		M19,28.4c0.9,0,1.8-0.3,2.5-1.1c0.8-0.8,1.2-1.7,1.1-2.5c-0.1-0.9-0.5-1.8-1.4-2.6l-8.6-8.6c-0.9-0.9-1.5-1.8-2-2.8
		c-0.4-1-0.7-2-0.7-2.9c0-1,0.2-1.9,0.6-2.8c0.4-0.9,1-1.8,1.7-2.5c0.7-0.7,1.4-1.2,2.2-1.6H1.1v11l15.1,15.1
		C17.2,28,18.1,28.4,19,28.4z"/>
</g>
<text transform="matrix(1 0 0 1 39.8408 20.4113)"><tspan x="0" y="0" class="st3 st4 st5">B-</tspan><tspan x="30.3" y="0" class="st3 st4 st6">Smart</tspan><tspan x="1.7" y="12.5" class="st3 st7 st8">More Than Banking</tspan></text>
</svg>
