<?xml version="1.0" encoding="utf-8"?>
<!-- Generator: Adobe Illustrator 27.5.0, SVG Export Plug-In . SVG Version: 6.00 Build 0)  -->
<svg version="1.1" id="Layer_1" xmlns="http://www.w3.org/2000/svg" xmlns:xlink="http://www.w3.org/1999/xlink" x="0px" y="0px"
	 viewBox="0 0 43 33" style="enable-background:new 0 0 43 33;" xml:space="preserve">
<style type="text/css">
	.st0{fill:url(#XMLID_00000131358864751545873440000008190823802309685405_);}
	.st1{fill:url(#XMLID_00000021102175659253730050000001114656754011601795_);}
	.st2{fill:url(#XMLID_00000057136962041971156520000012490357729178525069_);}
</style>
<g id="XMLID_00000137839674287109906480000001454502194938847883_">
	
		<linearGradient id="XMLID_00000043428901732719355890000005676228122439979925_" gradientUnits="userSpaceOnUse" x1="22.2869" y1="6.8911" x2="38.6353" y2="6.8911">
		<stop  offset="0" style="stop-color:#392C70"/>
		<stop  offset="1" style="stop-color:#681D5C"/>
	</linearGradient>
	
		<path id="XMLID_00000077286911125881272010000002562438825414863765_" style="fill:url(#XMLID_00000043428901732719355890000005676228122439979925_);" d="
		M25.2,2l11.7,11.7c0.1-0.1,0.3-0.3,0.4-0.5c0.4-0.6,0.8-1.2,1-2c0.2-0.8,0.4-1.7,0.4-2.8c0-1.4-0.3-2.6-0.8-3.7
		c-0.5-1.1-1.2-2-2.2-2.7c-0.9-0.7-2.1-1.2-3.4-1.6C31,0.2,29.5,0,27.9,0h-5.6c0,0,0.1,0,0.1,0C23.3,0.5,24.3,1.1,25.2,2z"/>
	
		<linearGradient id="XMLID_00000126298555074579358620000012582023446594739116_" gradientUnits="userSpaceOnUse" x1="3.7745" y1="18.5572" x2="39.2255" y2="18.5572">
		<stop  offset="0" style="stop-color:#392C70"/>
		<stop  offset="1" style="stop-color:#681D5C"/>
	</linearGradient>
	
		<path id="XMLID_00000157281038791802308330000006638850718068026280_" style="fill:url(#XMLID_00000126298555074579358620000012582023446594739116_);" d="
		M39.2,22.5L22,5.2c-0.7-0.7-1.5-1.1-2.3-1.1c-0.8,0-1.5,0.3-2.2,1c-0.7,0.7-1,1.4-1,2.2c0,0.8,0.4,1.5,1.1,2.2l8.3,8.3
		c1.9,1.9,2.8,3.7,2.9,5.5c0.1,1.8-0.7,3.6-2.5,5.4c-0.8,0.8-1.6,1.4-2.5,1.8c-0.9,0.4-1.8,0.6-2.7,0.6c-0.9,0-1.9-0.2-2.9-0.7
		c-1-0.4-1.9-1.1-2.9-2.1L3.8,17.1V33h24.8c1.6,0,3.1-0.2,4.4-0.7c1.3-0.5,2.4-1.1,3.4-2c0.9-0.9,1.6-1.9,2.1-3.2
		c0.5-1.2,0.7-2.6,0.7-4.1C39.2,22.8,39.2,22.6,39.2,22.5z"/>
	
		<linearGradient id="XMLID_00000159458236523760643250000008568781079272171956_" gradientUnits="userSpaceOnUse" x1="3.7745" y1="13.3458" x2="24.5653" y2="13.3458">
		<stop  offset="0" style="stop-color:#392C70"/>
		<stop  offset="1" style="stop-color:#681D5C"/>
	</linearGradient>
	
		<path id="XMLID_00000075162789122616609960000011276797871104773556_" style="fill:url(#XMLID_00000159458236523760643250000008568781079272171956_);" d="
		M21.1,26.7c0.9,0,1.7-0.3,2.4-1c0.8-0.8,1.1-1.6,1.1-2.5c-0.1-0.9-0.5-1.7-1.4-2.6l-8.4-8.4c-0.9-0.9-1.5-1.8-1.9-2.7
		c-0.4-1-0.7-1.9-0.7-2.8c0-0.9,0.2-1.8,0.5-2.7c0.4-0.9,0.9-1.7,1.7-2.5c0.7-0.7,1.4-1.2,2.1-1.5H3.8v10.7l14.7,14.7
		C19.3,26.2,20.2,26.7,21.1,26.7z"/>
</g>
</svg>
